<svg width="30" height="30" viewBox="0 0 30 30" fill="none" xmlns="http://www.w3.org/2000/svg">
<g clip-path="url(#clip0_471_144)">
<path d="M15.013 2.94678e-05C13.7259 -0.00433028 12.4842 0.475221 11.5342 1.34357C10.5841 2.21191 9.99511 3.40562 9.884 4.68792H8.25051C6.76406 4.68792 5.67447 5.83951 5.4477 7.40392L2.59351 27.1494C2.3685 28.7032 3.81597 30.0018 5.39986 30.0018H24.605C26.1995 30.0018 27.631 28.7014 27.4078 27.1494L24.5554 7.40392C24.3374 5.89621 23.2815 4.68792 21.7525 4.68792H20.1403C20.0292 3.40562 19.4402 2.21191 18.4902 1.34357C17.5401 0.475221 16.2984 -0.00433028 15.0113 2.94678e-05H15.013ZM15.013 0.937253C17.2064 0.937253 18.9993 2.57961 19.2049 4.68792H10.8212C10.9287 3.65369 11.4177 2.69662 12.1927 2.00347C12.9678 1.31031 13.9733 0.92904 15.013 0.937253ZM8.25051 5.62691H21.7525C22.874 5.62691 23.4923 6.58717 23.6288 7.53679L26.4812 27.284C26.6229 28.2655 25.6077 29.0628 24.6032 29.0628H5.39809C4.39709 29.0628 3.38191 28.2709 3.52364 27.284L6.37783 7.53679C6.52665 6.49504 7.19104 5.62691 8.25051 5.62691ZM19.2261 9.37403C19.2261 11.6755 17.3481 13.5375 15.013 13.5375C12.678 13.5375 10.8 11.6755 10.8 9.37226C10.8 8.74863 9.86274 8.74508 9.86274 9.37226C9.86274 12.1857 12.1766 14.473 15.013 14.473C17.8477 14.473 20.1616 12.1857 20.1616 9.37049C20.1616 8.74863 19.2261 8.74863 19.2261 9.37049V9.37403Z" fill="#333333"/>
</g>
<defs>
<clipPath id="clip0_471_144">
<rect width="30" height="30" fill="white"/>
</clipPath>
</defs>
</svg>
